<svg width="64" height="64" viewBox="0 0 64 64" xmlns="http://www.w3.org/2000/svg">
  <defs>
    <linearGradient id="gold" x1="0%" y1="0%" x2="100%" y2="100%">
      <stop offset="0%" style="stop-color:#ffd700"/>
      <stop offset="100%" style="stop-color:#c6a700"/>
    </linearGradient>
    
    <filter id="glow" x="-50%" y="-50%" width="200%" height="200%">
      <feGaussianBlur stdDeviation="2" result="coloredBlur"/>
      <feMerge> 
        <feMergeNode in="coloredBlur"/>
        <feMergeNode in="SourceGraphic"/> 
      </feMerge>
    </filter>
  </defs>
  
  <!-- Luxury key symbol - main element -->
  <g transform="translate(32, 32)">
    <!-- Key head - refined proportions -->
    <circle cx="-8" cy="0" r="10" 
            fill="#ffffff" 
            stroke="url(#gold)" 
            stroke-width="1.5"/>
    
    <!-- Larger, more prominent crown -->
    <g fill="url(#gold)" filter="url(#glow)">
      <!-- Crown points - enlarged and moved down -->
      <path d="M-14,2 L-12,-5 L-10,0 L-8,-6 L-6,0 L-4,-5 L-2,2 L-2,4 L-14,4 Z"/>
    </g>
    
    <!-- Key shaft - refined -->
    <rect x="0" y="-1.5" width="18" height="3" 
          fill="#ffffff" 
          rx="1.5"/>
    
    <!-- Key teeth - cleaner reservation symbol -->
    <g fill="url(#gold)">
      <rect x="15" y="-1.5" width="1.5" height="4" rx="0.5"/>
      <rect x="17.5" y="-1.5" width="1.5" height="6" rx="0.5"/>
      <rect x="20" y="-1.5" width="1.5" height="3" rx="0.5"/>
    </g>
    
    <!-- Calendar dots integrated into key -->
    <g fill="url(#gold)" opacity="0.8">
      <circle cx="6" cy="-1" r="1"/>
      <circle cx="9" cy="1" r="1"/>
      <circle cx="12" cy="-1" r="1"/>
    </g>
  </g>
  
  <!-- Premium accent circle -->
  <circle cx="32" cy="32" r="28" 
          fill="none" 
          stroke="#ffffff" 
          stroke-width="0.5" 
          opacity="0.3"/>
</svg>